# Blender v2.80 (sub 75) OBJ File: 'Arena.blend'
# www.blender.org
mtllib Arena.mtl
o Cube_Cube.001
v -4.609358 -3.090710 4.609358
v -4.609358 -3.090710 -4.609358
v 4.609358 -3.090710 4.609358
v 4.609358 -3.090710 -4.609358
v -5.368865 -5.368865 5.368865
v -20.393789 5.368865 20.393789
v -5.368865 -5.368865 -5.368865
v -20.393789 5.368865 -20.393789
v 5.368865 -5.368865 5.368865
v 20.393789 5.368865 20.393789
v 5.368865 -5.368865 -5.368865
v 20.393789 5.368865 -20.393789
v 16.446539 5.368865 16.446539
v -16.446539 5.368865 16.446539
v -16.446541 5.368865 15.687400
v 16.446539 5.368865 -16.446539
v -16.446539 5.368865 -16.446539
vt 0.375000 0.000000
vt 0.375000 0.250000
vt 0.604413 0.250000
vt 0.604413 0.006184
vt 0.604413 0.000000
vt 0.375000 0.500000
vt 0.604413 0.500000
vt 0.375000 0.750000
vt 0.604413 0.750000
vt 0.375000 1.000000
vt 0.604413 1.000000
vt 0.125000 0.500000
vt 0.125000 0.750000
vt 0.375000 0.000000
vt 0.625000 0.000000
vt 0.625000 0.250000
vt 0.375000 0.250000
vt 0.625000 0.500000
vt 0.375000 0.500000
vt 0.625000 0.750000
vt 0.375000 0.750000
vt 0.625000 1.000000
vt 0.375000 1.000000
vt 0.125000 0.500000
vt 0.125000 0.750000
vt 0.649194 0.524194
vt 0.649194 0.725806
vt 0.850806 0.725806
vt 0.850806 0.721153
vt 0.875000 0.750000
vt 0.850806 0.524194
vt 0.875000 0.500000
vn 0.5814 0.8136 0.0000
vn 0.0000 0.8136 0.5814
vn -0.5814 0.8136 -0.0000
vn -0.0000 0.8136 -0.5814
vn 0.0000 1.0000 0.0000
vn -0.5814 -0.8136 0.0000
vn 0.0000 -0.8136 -0.5814
vn 0.5814 -0.8136 0.0000
vn 0.0000 -0.8136 0.5814
vn 0.0000 -1.0000 0.0000
usemtl None
s off
f 1/1/1 2/2/1 17/3/1 15/4/1 14/5/1
f 2/2/2 4/6/2 16/7/2 17/3/2
f 4/6/3 3/8/3 13/9/3 16/7/3
f 3/8/4 1/10/4 14/11/4 13/9/4
f 2/12/5 1/13/5 3/8/5 4/6/5
f 5/14/6 6/15/6 8/16/6 7/17/6
f 7/17/7 8/16/7 12/18/7 11/19/7
f 11/19/8 12/18/8 10/20/8 9/21/8
f 9/21/9 10/20/9 6/22/9 5/23/9
f 7/24/10 11/19/10 9/21/10 5/25/10
f 12/18/5 16/26/5 13/27/5 14/28/5 15/29/5 6/30/5 10/20/5
f 6/30/5 15/29/5 17/31/5 16/26/5 12/18/5 8/32/5
